<svg xmlns="http://www.w3.org/2000/svg" viewBox="0 0 240 90"><defs><style>.cls-1{font-size:9px;font-family:NeuzeitGro-Reg, Neuzeit Grotesk;}.cls-2{letter-spacing:-0.01em;}.cls-3{letter-spacing:-0.01em;}.cls-4{letter-spacing:0em;}.cls-5{letter-spacing:-0.01em;}.cls-6{letter-spacing:0em;}.cls-7{letter-spacing:0em;}</style></defs><g id="Layer_1" data-name="Layer 1"><path d="M105.56,47.81a2.57,2.57,0,0,1-2.19,1,3.78,3.78,0,0,1,0-7.55,2.84,2.84,0,0,1,2.21.92V37.14h2.5V48.59h-2.5ZM104,46.67A1.62,1.62,0,1,0,102.4,45,1.63,1.63,0,0,0,104,46.67Z"/><path d="M109.37,41.51h2.5v4a1.27,1.27,0,1,0,2.54,0v-4h2.5V46c0,1.88-1.31,2.88-3.78,2.88s-3.76-1-3.76-2.88Z"/><path d="M118.23,41.51h2.5v.88a3,3,0,0,1,2.29-1,2.55,2.55,0,0,1,2.39,1.32,2.71,2.71,0,0,1,2.41-1.33,2.42,2.42,0,0,1,2,1,3,3,0,0,1,.39,1.66v4.59h-2.5v-3.5a2.29,2.29,0,0,0-.14-1.12,1,1,0,0,0-.91-.63,1.19,1.19,0,0,0-1,.66,2.49,2.49,0,0,0-.17,1.09v3.5H123v-3.5a2.76,2.76,0,0,0-.11-1.12,1.08,1.08,0,0,0-1-.68,1.18,1.18,0,0,0-1,.6,2.62,2.62,0,0,0-.17,1.2v3.5h-2.5Z"/><path d="M134.19,52.14h-2.5V41.51h2.5v.78a2.56,2.56,0,0,1,2.19-1,3.78,3.78,0,0,1,0,7.55,2.85,2.85,0,0,1-2.21-.93Zm1.55-5.47A1.62,1.62,0,1,0,134.11,45,1.63,1.63,0,0,0,135.74,46.67Z"/><path d="M146.47,47.81a2.54,2.54,0,0,1-2.18,1,3.64,3.64,0,0,1-3.58-3.8,3.6,3.6,0,0,1,3.56-3.75,2.82,2.82,0,0,1,2.2.92v-.69H149v7.08h-2.5Zm-1.53-1.14A1.62,1.62,0,1,0,143.32,45,1.63,1.63,0,0,0,144.94,46.67Z"/><path d="M150.28,41.51h2.5v1.16a2.51,2.51,0,0,1,2.33-1.27l.49,0v2.4a2,2,0,0,0-1.07-.27c-1.17,0-1.75.67-1.75,2v3h-2.5Z"/><path d="M156.33,37.14h2.5v6.92l2.63-2.55h3.42l-3.55,3.27,3.77,3.81h-3.52l-2.75-2.87v2.87h-2.5Z"/><path d="M167.47,45.65a1.62,1.62,0,1,1-1.61,1.6A1.63,1.63,0,0,1,167.47,45.65Z"/><path d="M175.66,48.43a4.13,4.13,0,0,1-1.75.4,3.77,3.77,0,1,1,.06-7.54,3.35,3.35,0,0,1,1.69.4v2.12a2.19,2.19,0,0,0-1.3-.44,1.71,1.71,0,1,0,0,3.41,2,2,0,0,0,1.3-.47Z"/><path d="M181,41.25c2.5,0,4.26,1.58,4.26,3.79s-1.76,3.82-4.29,3.82A3.88,3.88,0,0,1,176.72,45C176.72,42.84,178.53,41.25,181,41.25Zm0,5.4A1.63,1.63,0,1,0,179.36,45,1.62,1.62,0,0,0,181,46.65Z"/><path d="M186.37,41.51h2.5v.88a3,3,0,0,1,2.3-1,2.56,2.56,0,0,1,2.39,1.32A2.7,2.7,0,0,1,196,41.39a2.42,2.42,0,0,1,2,1,3,3,0,0,1,.39,1.66v4.59h-2.5v-3.5a2.29,2.29,0,0,0-.14-1.12,1,1,0,0,0-.91-.63,1.19,1.19,0,0,0-1,.66,2.35,2.35,0,0,0-.17,1.09v3.5h-2.5v-3.5A2.76,2.76,0,0,0,191,44a1.08,1.08,0,0,0-1-.68,1.22,1.22,0,0,0-1,.6,2.77,2.77,0,0,0-.17,1.2v3.5h-2.5Z"/><polygon points="51.48 51.86 55.26 49.27 55.26 41.65 51.48 39.06 51.48 51.86"/><polygon points="65.58 34.58 55.97 28 55.97 34.21 65.58 40.79 65.58 34.58"/><polygon points="66.29 48.78 71.41 45.27 71.41 37.72 82.72 45.46 66.29 56.71 66.29 62.92 91.79 45.46 66.29 28 66.29 48.78"/><polygon points="50.77 37.72 50.77 37.72 61.8 45.27 61.8 51.86 65.58 49.27 65.58 41.65 45.64 28 45.64 62.92 55.26 56.34 55.26 50.13 50.77 53.2 50.77 37.72"/><polygon points="61.09 53.2 61.09 53.2 61.09 45.65 55.97 42.14 55.97 62.92 81.47 45.46 72.12 39.06 72.12 45.65 61.09 53.2"/><text class="cls-1" transform="translate(100.95 62.24)">In<tspan class="cls-2" x="6.83" y="0">f</tspan><tspan x="9.05" y="0">o</tspan><tspan class="cls-3" x="13.99" y="0">r</tspan><tspan x="16.78" y="0">m</tspan><tspan class="cls-4" x="23.72" y="0">a</tspan><tspan class="cls-5" x="28.89" y="0">t</tspan><tspan x="31.16" y="0">ion d</tspan><tspan class="cls-6" x="50.6" y="0">e</tspan><tspan x="55.43" y="0">s</tspan><tspan class="cls-7" x="59.13" y="0">i</tspan><tspan x="61.18" y="0">gn</tspan></text></g></svg>