<svg xmlns="http://www.w3.org/2000/svg" viewBox="0 0 240 90"><defs><style>.cls-1{fill:#ee312f;}.cls-2{fill:#ffdf4f;}.cls-3{fill:#0056a2;}</style></defs><g id="Layer_1" data-name="Layer 1"><rect class="cls-1" x="35.25" y="25" width="43" height="43"/><path class="cls-2" d="M48.88,56.69c0,3,1.14,5.7,7.89,5.7s7.87-2.68,7.9-5.7V42.6H48.87ZM62.51,46a.35.35,0,0,1,.35.34.1.1,0,0,1,0,0h.35a.1.1,0,0,1,0,0,.35.35,0,0,1,.7,0,.92.92,0,0,1-.52.69,2.12,2.12,0,0,0-.34.27,2.5,2.5,0,0,0-.35-.27c-.23-.14-.52-.39-.52-.69A.35.35,0,0,1,62.51,46Zm0,5.75a.35.35,0,0,1,.35.34.1.1,0,0,1,0,0h.35a.1.1,0,0,1,0,0,.35.35,0,0,1,.7,0,.92.92,0,0,1-.52.69,2.12,2.12,0,0,0-.34.27,2.5,2.5,0,0,0-.35-.27c-.23-.14-.52-.39-.52-.69A.35.35,0,0,1,62.51,51.79Zm0,5.73a.35.35,0,0,1,.35.35.1.1,0,0,1,0,0h.35a.1.1,0,0,1,0,0,.35.35,0,0,1,.7,0c0,.3-.28.54-.52.69a2.12,2.12,0,0,0-.34.27,2.5,2.5,0,0,0-.35-.27c-.23-.15-.52-.39-.52-.69A.35.35,0,0,1,62.51,57.52ZM56.25,44.1a.35.35,0,0,1,.35.35.1.1,0,0,1,0,0h.35a.1.1,0,0,1,0,0,.35.35,0,0,1,.7,0,.92.92,0,0,1-.52.69,2.12,2.12,0,0,0-.34.27,2.5,2.5,0,0,0-.35-.27.92.92,0,0,1-.52-.69A.35.35,0,0,1,56.25,44.1Zm0,5.75a.35.35,0,0,1,.35.35.1.1,0,0,1,0,0h.35a.1.1,0,0,1,0,0,.35.35,0,0,1,.7,0,.92.92,0,0,1-.52.69,2.12,2.12,0,0,0-.34.27,2.5,2.5,0,0,0-.35-.27.92.92,0,0,1-.52-.69A.35.35,0,0,1,56.25,49.85Zm0,5.74a.35.35,0,0,1,.35.35.1.1,0,0,1,0,0h.35a.1.1,0,0,1,0,0,.35.35,0,0,1,.7,0c0,.3-.28.54-.52.69a1.65,1.65,0,0,0-.34.27,1.87,1.87,0,0,0-.35-.27c-.24-.15-.52-.39-.52-.69A.35.35,0,0,1,56.25,55.59ZM52.41,44.87a2.53,2.53,0,0,0,.91.62,2.44,2.44,0,0,0,.71.08c.08,0,.14,0,.14.18s0,.19-.15.19a2.13,2.13,0,0,1-.82-.14,1.61,1.61,0,0,1-.82-.89Zm0,5.75a2.53,2.53,0,0,0,.91.62,2.44,2.44,0,0,0,.71.08c.08,0,.14,0,.14.18s0,.19-.15.19a2.13,2.13,0,0,1-.82-.14,1.61,1.61,0,0,1-.82-.89Zm0,5.74a2.56,2.56,0,0,0,.91.61,2.14,2.14,0,0,0,.71.08c.08,0,.14,0,.14.18s0,.2-.15.2a2.1,2.1,0,0,1-.82-.15,1.57,1.57,0,0,1-.82-.88ZM50,46a.35.35,0,0,1,.35.34.1.1,0,0,1,0,0h.35a.1.1,0,0,1,0,0,.35.35,0,0,1,.7,0,.92.92,0,0,1-.52.69,2.12,2.12,0,0,0-.34.27,2.5,2.5,0,0,0-.35-.27c-.23-.14-.52-.39-.52-.69A.35.35,0,0,1,50,46Zm0,5.75a.35.35,0,0,1,.35.34.1.1,0,0,1,0,0h.35a.1.1,0,0,1,0,0,.35.35,0,0,1,.7,0,.92.92,0,0,1-.52.69,2.12,2.12,0,0,0-.34.27,2.5,2.5,0,0,0-.35-.27c-.23-.14-.52-.39-.52-.69A.35.35,0,0,1,50,51.79Zm0,5.73a.35.35,0,0,1,.35.35.1.1,0,0,1,0,0h.35a.1.1,0,0,1,0,0,.35.35,0,0,1,.7,0c0,.3-.28.54-.52.69a2.12,2.12,0,0,0-.34.27,2.5,2.5,0,0,0-.35-.27c-.23-.15-.52-.39-.52-.69A.35.35,0,0,1,50,57.52Z"/><rect class="cls-2" x="50.98" y="39.97" width="11.58" height="1.59"/><path class="cls-2" d="M51,38.67v.26H62.58v-.26a1.36,1.36,0,0,1,1-1.34C63.91,36,65,35.69,65,34.55s-.78-1.61-2.08-1.61a3,3,0,0,0-.94.14c-.32-.73-.85-1.06-2-1.06s-1.76.81-2.68.81v-.46s.76-.29.76-.95a1,1,0,0,0-.91-1l-.09-.85.85.2.59-.35v-.13l-.59-.35-.89.16.16-.87-.35-.59h-.13l-.36.59.16.87-.89-.16-.59.35v.13l.59.35.86-.2-.1.85a1,1,0,0,0-.91,1c0,.66.76.95.76.95v.46c-.92,0-1.66-.81-2.68-.81s-1.64.33-2,1.06a2.9,2.9,0,0,0-.94-.14c-1.3,0-2.08.6-2.08,1.61s1.06,1.49,1.35,2.78A1.35,1.35,0,0,1,51,38.67Zm11.2-4.89a1.78,1.78,0,0,1,.56-.07c.51,0,1.13.19,1.13.83,0,1-1.25,2-1.6,2.85-.15.36-.3.41-.55.41H60.22C60.22,36.29,62.16,35.14,62.16,33.78Zm-4.66-.22A16.24,16.24,0,0,1,59.82,33a.92.92,0,0,1,1,1c0,1-1.46,1.89-1.68,3.43a.43.43,0,0,1-.49.42H57.49a5.54,5.54,0,0,0,.39-2.2A4.39,4.39,0,0,0,57.5,33.56ZM53.73,33c.78,0,1.68.55,2.32.61a4.3,4.3,0,0,0-.39,2,5.54,5.54,0,0,0,.39,2.2H54.88a.44.44,0,0,1-.49-.42C54.18,35.84,52.71,35,52.71,34A.92.92,0,0,1,53.73,33Zm-2.91.76a1.81,1.81,0,0,1,.57.07c0,1.36,1.93,2.51,1.93,4H51.84c-.25,0-.4,0-.55-.41-.35-.84-1.6-1.81-1.6-2.85C49.69,33.9,50.31,33.71,50.82,33.71Z"/><path class="cls-3" d="M57.41,47.87a.22.22,0,0,1-.2-.08l-.16-.23H57l-.1.27a.31.31,0,0,1-.15.15,3.15,3.15,0,0,1-.29.13l0,.11.29.16a.37.37,0,0,1,.13.17l.12.27h.12a.73.73,0,0,1,.12-.19.27.27,0,0,1,.25-.1h.93a.62.62,0,0,0,.47-.17c.35-.29,1-.84,1-.84l-.18-.23a2.8,2.8,0,0,0-.27-.3.44.44,0,0,0-.34-.11h-.43v-.25s-.49.24-.49.53.26.42.51.71Z"/><path class="cls-3" d="M53.75,45.46v-.3h.38c.16,0,.26,0,.26.19s0,.51,0,.65-.07.19-.21.19h-.27a.53.53,0,0,1-.47-.17,3,3,0,0,0,0,1.08h0a3.59,3.59,0,0,0,1.89-.78l.79-.68a2.91,2.91,0,0,1-.86-.93.4.4,0,0,0-.23-.2l.34-.62-.1-.06-.39.28c-.08,0-.12,0-.16,0l-.22-.47H54.4l-.22.47c0,.07-.08.09-.15,0l-.4-.28-.09.06.33.61h0l-.4,0a.14.14,0,0,0-.14.15v.26A.57.57,0,0,0,53.75,45.46Zm.25-.89h.4a.53.53,0,0,1-.28.2c-.17,0-.18,0-.19-.09S54,44.57,54,44.57Z"/><path class="cls-3" d="M50.34,48.41a.49.49,0,0,1,.16.16l.15.25.12,0a1,1,0,0,1,.09-.2c0-.06.09-.1.25-.12s2.29-.25,3.51-.43v.2c1.68-.22,2.69-1.82,4.1-1.82a1.34,1.34,0,0,1,1.09.61c.31.4.36.5.85.5h.81l.52.59a.21.21,0,0,1,0,.21,2.22,2.22,0,0,1-.11.25l.06.07.29-.07a.31.31,0,0,1,.21,0,2.86,2.86,0,0,1,.28.16l.1-.06s0-.19,0-.31a.39.39,0,0,1,.05-.2l.19-.25L63,47.87a1.11,1.11,0,0,1-.24,0c-.07,0-.14,0-.24-.16l-.64-.79c-.81,0-.9-.12-1.09-.5.86,0,1.08-.33,1.08-.78S61.5,45,60.83,45H59.15c-.36,0-.56,0-.56-.27s.16-.32,1.17-.32l1.38,0h0c.22.18.23.19.4.2h.71v-.21a.58.58,0,0,0,.24,0,1.54,1.54,0,0,0,1.17-.54l-.07-.06a2.21,2.21,0,0,1-1.12.25h-.22v-.23h-.7c-.17,0-.21,0-.42.18l-1.51,0c-1.22,0-1.56.25-1.56.7s.36.66,1,.66h1.68c.36,0,.56,0,.56.28s-.15.3-.74.3c-.36,0-.69-.16-1.27-.16a9.18,9.18,0,0,0-1.31.1s-.41.05-.72.05a2.38,2.38,0,0,1-.88-.17l-.9.78a3.8,3.8,0,0,1-2,.85L51,47.82a.25.25,0,0,1-.21-.06l-.18-.21h-.09l-.07.28a.32.32,0,0,1-.13.18,2.13,2.13,0,0,1-.27.16v.12Z"/><path class="cls-3" d="M50.24,45l0,.09.27,0a.19.19,0,0,1,.17.08c.29.28,1.27,1.21,2.08,2.11l.3-.05a3.78,3.78,0,0,1,0-.89h0c-.69-.6-1.75-1.52-1.78-1.57a.22.22,0,0,1-.07-.2c0-.05.08-.26.08-.26l-.06-.06-.28.1a.41.41,0,0,1-.22,0l-.29-.13-.09.07s0,.17.06.28a.39.39,0,0,1,0,.22Z"/><path class="cls-3" d="M57.41,53.62a.22.22,0,0,1-.2-.08l-.16-.23H57l-.1.27a.31.31,0,0,1-.15.15,3.15,3.15,0,0,1-.29.13l0,.11.29.16a.37.37,0,0,1,.13.17l.12.27h.12a.73.73,0,0,1,.12-.19.27.27,0,0,1,.25-.1h.93a.62.62,0,0,0,.47-.17c.35-.29,1-.84,1-.84L59.6,53a2.8,2.8,0,0,0-.27-.3.44.44,0,0,0-.34-.11h-.43v-.25s-.49.24-.49.53.26.42.51.71Z"/><path class="cls-3" d="M54.19,51.94h-.27a.53.53,0,0,1-.47-.17,3,3,0,0,0,0,1.08h0a3.59,3.59,0,0,0,1.89-.78l.79-.68a2.91,2.91,0,0,1-.86-.93.4.4,0,0,0-.23-.2l.34-.62-.1-.06-.39.28c-.08,0-.12,0-.16,0l-.22-.47H54.4l-.22.47c0,.07-.08.09-.15,0l-.4-.28-.09.06.33.61h0l-.4,0a.14.14,0,0,0-.14.15v.26a.57.57,0,0,0,.42.53v-.3h.38c.16,0,.26,0,.26.19s0,.51,0,.65S54.33,51.94,54.19,51.94Zm-.07-1.42c-.17,0-.18,0-.19-.09s0-.11.07-.11h.4A.53.53,0,0,1,54.12,50.52Z"/><path class="cls-3" d="M62.47,49.83a.62.62,0,0,0-.22,0v-.24h-.7c-.17,0-.21,0-.42.18l-1.51,0c-1.22,0-1.56.25-1.56.7s.36.66,1,.66h1.68c.36,0,.56,0,.56.28s-.15.3-.74.3c-.36,0-.69-.16-1.27-.16a9.18,9.18,0,0,0-1.31.1s-.41.05-.72.05a2.38,2.38,0,0,1-.88-.17l-.9.78a3.8,3.8,0,0,1-2,.85L51,53.57a.25.25,0,0,1-.21-.06l-.18-.21h-.09l-.07.28a.32.32,0,0,1-.13.18,2.13,2.13,0,0,1-.27.16v.12l.29.11a.49.49,0,0,1,.16.16l.15.25.12,0a1,1,0,0,1,.09-.2c0-.06.09-.1.25-.12s2.29-.25,3.51-.43V54c1.68-.22,2.69-1.82,4.1-1.82a1.34,1.34,0,0,1,1.09.61c.31.4.36.5.85.5h.81l.52.59a.21.21,0,0,1,0,.21,2.22,2.22,0,0,1-.11.25l.06.07.29-.07a.31.31,0,0,1,.21,0,2.86,2.86,0,0,1,.28.16l.1-.06s0-.19,0-.31a.39.39,0,0,1,.05-.2l.19-.25L63,53.62a1.11,1.11,0,0,1-.24,0c-.07,0-.14,0-.24-.16l-.64-.79c-.81,0-.9-.12-1.09-.5.86,0,1.08-.33,1.08-.78s-.38-.67-1.05-.67H59.15c-.36,0-.56,0-.56-.27s.16-.32,1.17-.32l1.38,0h0c.22.18.23.19.4.2h.71v-.21a.58.58,0,0,0,.24,0,1.54,1.54,0,0,0,1.17-.54l-.07-.06A2.21,2.21,0,0,1,62.47,49.83Z"/><path class="cls-3" d="M50.24,50.7l0,.09.27,0a.19.19,0,0,1,.17.08C51,51.12,52,52.05,52.81,53l.3-.05a3.78,3.78,0,0,1,0-.89h0c-.69-.6-1.75-1.52-1.78-1.57a.22.22,0,0,1-.07-.2c0-.05.08-.26.08-.26l-.06-.06L51,50a.41.41,0,0,1-.22,0l-.29-.13-.09.07s0,.17.06.28a.39.39,0,0,1,0,.22Z"/><path class="cls-3" d="M53.47,56a.14.14,0,0,0-.14.15v.26a.57.57,0,0,0,.42.52v-.29h.38c.16,0,.26,0,.26.18s0,.52,0,.66-.07.19-.21.19h-.27a.53.53,0,0,1-.47-.17,2.92,2.92,0,0,0,0,1.07h0a3.49,3.49,0,0,0,1.89-.77l.79-.69a2.72,2.72,0,0,1-.86-.93A.45.45,0,0,0,55,56l.34-.61-.1-.07-.39.29c-.08,0-.12,0-.16,0l-.22-.47H54.4l-.22.47a.09.09,0,0,1-.15,0l-.4-.29-.09.07.33.61h0Zm.53.05h.4a.58.58,0,0,1-.28.2c-.17.05-.18,0-.19-.1S54,56.06,54,56.06Z"/><path class="cls-3" d="M59.33,58.48a.4.4,0,0,0-.34-.11h-.37v-.26s-.44.25-.44.54a1.21,1.21,0,0,0,.31.53l-.57.39h0a.19.19,0,0,1-.2,0l-.23-.12-.06.05s0,.17,0,.28a.31.31,0,0,1,0,.21,1.89,1.89,0,0,1-.16.26l0,.1h.3a.4.4,0,0,1,.18.08l.23.17.09-.06a.7.7,0,0,1,0-.22.3.3,0,0,1,.15-.22L59.75,59l-.15-.19A1.65,1.65,0,0,0,59.33,58.48Z"/><path class="cls-3" d="M62.47,55.56a.62.62,0,0,0-.22,0v-.23h-.7c-.17,0-.21,0-.42.18l-1.51,0c-1.22,0-1.56.25-1.56.7s.36.66,1,.66h1.68c.36,0,.56,0,.56.28s-.15.3-.74.3c-.36,0-.69-.15-1.27-.15a7.9,7.9,0,0,0-1.31.1s-.41,0-.72,0a2.6,2.6,0,0,1-.88-.17l-.9.77a3.82,3.82,0,0,1-2,.86l-1.72.28a.25.25,0,0,1-.21-.06l-.18-.21-.09,0-.07.28a.3.3,0,0,1-.13.17,2.8,2.8,0,0,1-.27.17v.11l.29.12a.31.31,0,0,1,.15.15l.16.26.12,0a.79.79,0,0,1,.09-.2c0-.07.09-.1.25-.13s1.53-.12,2.75-.3v.2c1.68-.22,2.69-1.82,4.1-1.82a1.34,1.34,0,0,1,1.09.61c.31.4.36.5.85.5h.76l.27.58a.19.19,0,0,1,0,.21l-.18.2,0,.09.3,0a.37.37,0,0,1,.19.09l.22.24.11,0a3,3,0,0,1,.08-.29.25.25,0,0,1,.11-.17c.09-.08.25-.19.25-.19l0-.1a1.49,1.49,0,0,1-.23-.06c-.07,0-.12-.08-.18-.23l-.44-1c-.81,0-.9-.12-1.09-.51.86,0,1.08-.32,1.08-.77s-.38-.67-1.05-.67H59.15c-.36,0-.56,0-.56-.27s.16-.31,1.17-.31l1.38,0h0c.22.18.23.19.4.2h.71V55.9a.58.58,0,0,0,.24,0,1.54,1.54,0,0,0,1.17-.54l-.07-.06A2.28,2.28,0,0,1,62.47,55.56Z"/><path class="cls-3" d="M52.81,58.69l.3,0a3.86,3.86,0,0,1,0-.9h0c-.69-.6-1.75-1.52-1.78-1.56a.22.22,0,0,1-.07-.2s.08-.26.08-.26l-.06-.07a2.2,2.2,0,0,1-.28.1.28.28,0,0,1-.22,0l-.29-.12-.09.07s0,.16.06.28a.34.34,0,0,1,0,.21l-.15.25,0,.09.27,0a.21.21,0,0,1,.17.07C51,56.86,52,57.78,52.81,58.69Z"/><path class="cls-1" d="M93.73,38.82a1.82,1.82,0,0,1-1.9,1.93h-.59c-.35,0-.49.1-.49.4v1.43H89.27V36.85h2.22C93,36.85,93.73,37.54,93.73,38.82Zm-1.56,0c0-.61-.32-.68-.93-.68h-.49v1.4h.48C91.84,39.5,92.17,39.41,92.17,38.78Z"/><path class="cls-1" d="M96.16,41.33h2.49v1.25h-4V36.85h4l-.28,1.25H96.16v1h1.62v1.19H96.16Z"/><path class="cls-1" d="M104.43,42.2l-1.47.46-1.1-1.61c-.22-.33-.34-.47-.52-.47s-.27.13-.27.41v1.59H99.59V36.85h2.3c1.55,0,2.21.54,2.21,1.74a1.84,1.84,0,0,1-1.17,1.66Zm-1.84-3.51c0-.59-.35-.68-.87-.68h-.65v1.4h.64C102.23,39.41,102.59,39.29,102.59,38.69Z"/><path class="cls-1" d="M111.89,42.58h-1.37L110.38,39c0-.06,0-.09-.08-.09s-.06,0-.08.09l-.9,3.62h-1.73l-.9-3.62c0-.06,0-.09-.08-.09s-.08,0-.08.09l-.14,3.62H105l.32-5.73c.32,0,.78,0,1.07,0s.79,0,1.11,0l.86,3.86s0,.08.08.08.05,0,.07-.08l.86-3.86c.31,0,.82,0,1.11,0s.75,0,1.08,0Z"/><path class="cls-1" d="M116.14,41.33h-1.79l-.25,1.25h-1.46l1.19-5.73c.47,0,.94,0,1.41,0s1,0,1.43,0l1.18,5.73h-1.46Zm-.24-1.22-.4-2a.24.24,0,0,0-.26-.22c-.11,0-.21,0-.25.22l-.4,2Z"/><path class="cls-1" d="M118.74,36.85h1.19l2,3.2v-3.2h1.47v5.73h-1.15l-2-3.11v3.11h-1.48Z"/><path class="cls-1" d="M126.16,41.33h2.49v1.25h-4V36.85h4l-.27,1.25h-2.22v1h1.62v1.19h-1.62Z"/><path class="cls-1" d="M129.6,36.85h1.19l2,3.2v-3.2h1.48v5.73h-1.16l-2-3.11v3.11H129.6Z"/><path class="cls-1" d="M139.45,38.1h-1.28v4.48h-1.48V38.1h-1.47V36.85h4.68Z"/><path class="cls-1" d="M148.89,42.58h-1.37L147.38,39c0-.06,0-.09-.08-.09s-.07,0-.08.09l-.9,3.62h-1.74l-.9-3.62c0-.06,0-.09-.08-.09a.08.08,0,0,0-.08.09l-.13,3.62H142l.31-5.73c.33,0,.79,0,1.08,0s.79,0,1.1,0l.87,3.86s0,.08.07.08.06,0,.07-.08l.86-3.86c.32,0,.82,0,1.11,0s.76,0,1.08,0Z"/><path class="cls-1" d="M150,36.85h1.48v5.73H150Z"/><path class="cls-1" d="M152.55,42.3l.35-1.25a3.83,3.83,0,0,0,1.57.38c.57,0,.76-.15.76-.48s-.12-.41-.68-.63L153.7,40a1.56,1.56,0,0,1-1.1-1.64c0-1.08.59-1.6,2.25-1.6a8.37,8.37,0,0,1,1.8.2l-.29,1.24a5.72,5.72,0,0,0-1.55-.23c-.55,0-.72.09-.72.39s.13.42.53.57l.95.36a1.57,1.57,0,0,1,1.16,1.58c0,1.28-.85,1.78-2.24,1.78A5.26,5.26,0,0,1,152.55,42.3Z"/><path class="cls-1" d="M157.38,42.3l.36-1.25a3.76,3.76,0,0,0,1.57.38c.57,0,.75-.15.75-.48s-.12-.41-.68-.63l-.85-.31a1.56,1.56,0,0,1-1.09-1.64c0-1.08.58-1.6,2.24-1.6a8.22,8.22,0,0,1,1.8.2l-.28,1.24a5.78,5.78,0,0,0-1.56-.23c-.55,0-.72.09-.72.39s.13.42.54.57l.94.36a1.58,1.58,0,0,1,1.17,1.58c0,1.28-.85,1.78-2.24,1.78A5.35,5.35,0,0,1,157.38,42.3Z"/><path class="cls-1" d="M162.57,36.85H164v5.73h-1.47Z"/><path class="cls-1" d="M170.2,39.73c0,2.24-.91,2.93-2.56,2.93s-2.56-.69-2.56-2.93,1-3,2.56-3S170.2,37.46,170.2,39.73Zm-1.56,0c0-1.28-.28-1.65-1-1.65s-1,.37-1,1.65.29,1.65,1,1.65S168.64,41,168.64,39.71Z"/><path class="cls-1" d="M171.23,36.85h1.2l2,3.2v-3.2h1.47v5.73h-1.15l-2-3.11v3.11h-1.48Z"/><path class="cls-1" d="M94.14,48.74c0,2.24-.91,2.93-2.57,2.93S89,51,89,48.74s1-3,2.56-3S94.14,46.48,94.14,48.74Zm-1.56,0c0-1.28-.28-1.65-1-1.65s-1,.37-1,1.65.28,1.65,1,1.65S92.58,50,92.58,48.72Z"/><path class="cls-1" d="M96.65,47.11v1.14h2V49.5h-2v2.09H95.17V45.86h4l-.28,1.25Z"/><path class="cls-1" d="M106.63,48.73c0,2.26-1.1,2.86-2.84,2.86h-1.9V45.86h1.9C105.53,45.86,106.63,46.46,106.63,48.73Zm-1.56,0c0-1.3-.41-1.62-1.28-1.62h-.43v3.23h.43C104.66,50.34,105.07,49.93,105.07,48.73Z"/><path class="cls-1" d="M109.14,50.34h2.48v1.25h-4V45.86h4l-.27,1.25h-2.21v1h1.62v1.19h-1.62Z"/><path class="cls-1" d="M112.57,45.86h1.19l2,3.2v-3.2h1.47v5.73h-1.16l-2-3.11v3.11h-1.48Z"/><path class="cls-1" d="M125.25,51.59h-1.37L123.74,48c0-.06,0-.09-.08-.09s-.06,0-.08.09l-.9,3.62H121l-.9-3.62c0-.06,0-.09-.08-.09s-.08,0-.08.09l-.14,3.62h-1.37l.31-5.73c.33,0,.79,0,1.08,0s.79,0,1.1,0l.87,3.86c0,.05,0,.08.07.08s.06,0,.08-.08l.86-3.86c.31,0,.81,0,1.11,0s.75,0,1.07,0Z"/><path class="cls-1" d="M129.49,50.34h-1.78l-.25,1.25H126l1.18-5.73c.48,0,.95,0,1.42,0s1,0,1.43,0l1.18,5.73h-1.47Zm-.23-1.22-.4-2a.24.24,0,0,0-.26-.22.24.24,0,0,0-.26.22l-.39,2Z"/><path class="cls-1" d="M136.94,51.21l-1.47.46-1.1-1.61c-.22-.33-.34-.47-.53-.47s-.26.13-.26.41v1.59H132.1V45.86h2.29c1.56,0,2.22.54,2.22,1.74a1.83,1.83,0,0,1-1.17,1.66ZM135.1,47.7c0-.59-.36-.68-.87-.68h-.65v1.4h.64C134.73,48.42,135.1,48.3,135.1,47.7Z"/><path class="cls-1" d="M142.66,51.19l-1.53.48-1.23-1.86c-.12-.19-.24-.31-.43-.31s-.33.09-.33.42v1.67h-1.47V45.86h1.47v2.48l1.7-2.48h1.74l-1.94,2.68Z"/><path class="cls-1" d="M148.94,47.11h-1.28v4.48h-1.47V47.11h-1.48V45.86h4.69Z"/><path class="cls-1" d="M154.82,48.74c0,2.24-.9,2.93-2.56,2.93s-2.56-.69-2.56-2.93,1-3,2.56-3S154.82,46.48,154.82,48.74Zm-1.55,0c0-1.28-.29-1.65-1-1.65s-1,.37-1,1.65.28,1.65,1,1.65S153.27,50,153.27,48.72Z"/><path class="cls-1" d="M161.45,47.11h-1.28v4.48H158.7V47.11h-1.48V45.86h4.68Z"/><path class="cls-1" d="M167.34,45.86v5.73h-1.48v-2.2h-1.75v2.2h-1.48V45.86h1.48v2.28h1.75V45.86Z"/><path class="cls-1" d="M170.11,50.34h2.49v1.25h-4V45.86h4l-.28,1.25h-2.21v1h1.62v1.19h-1.62Z"/><path class="cls-1" d="M175.31,49.47V45.86h1.47v3.52c0,.73.28,1,.88,1a6.72,6.72,0,0,0,.87,0V45.86H180v5.53a10.55,10.55,0,0,1-2.29.28C175.78,51.67,175.31,51.11,175.31,49.47Z"/><path class="cls-1" d="M181.29,45.86h1.2l2,3.2v-3.2H186v5.73h-1.16l-2-3.11v3.11h-1.48Z"/><path class="cls-1" d="M187.24,45.86h1.48v5.73h-1.48Z"/><path class="cls-1" d="M193.92,47.11h-1.28v4.48h-1.48V47.11h-1.47V45.86h4.68Z"/><path class="cls-1" d="M196.57,50.34h2.49v1.25h-4V45.86h4l-.28,1.25h-2.21v1h1.62v1.19h-1.62Z"/><path class="cls-1" d="M204.75,48.73c0,2.26-1.1,2.86-2.84,2.86H200V45.86h1.9C203.65,45.86,204.75,46.46,204.75,48.73Zm-1.56,0c0-1.3-.41-1.62-1.28-1.62h-.43v3.23h.43C202.78,50.34,203.19,49.93,203.19,48.73Z"/><path class="cls-1" d="M89.27,54.87h1.2l2,3.2v-3.2h1.47V60.6H92.77l-2-3.1v3.1H89.27Z"/><path class="cls-1" d="M98.31,59.35H96.52l-.25,1.25H94.81L96,54.87c.48,0,1,0,1.42,0s.94,0,1.42,0L100,60.6H98.56Zm-.24-1.21-.4-2c0-.18-.14-.22-.25-.22a.24.24,0,0,0-.26.22l-.4,2Z"/><path class="cls-1" d="M104.37,56.12h-1.28V60.6h-1.47V56.12h-1.47V54.87h4.68Z"/><path class="cls-1" d="M105.56,54.87H107V60.6h-1.47Z"/><path class="cls-1" d="M113.19,57.75c0,2.24-.91,2.93-2.56,2.93s-2.56-.69-2.56-2.93,1-3,2.56-3S113.19,55.49,113.19,57.75Zm-1.56,0c0-1.28-.28-1.64-1-1.64s-1,.36-1,1.64.29,1.65,1,1.65S111.63,59,111.63,57.73Z"/><path class="cls-1" d="M114.22,54.87h1.19l2,3.2v-3.2h1.47V60.6h-1.15l-2-3.1v3.1h-1.48Z"/><path class="cls-1" d="M119.9,60.32l.36-1.25a3.76,3.76,0,0,0,1.57.38c.57,0,.75-.15.75-.48s-.12-.41-.68-.62l-.85-.32A1.56,1.56,0,0,1,120,56.39c0-1.07.58-1.6,2.24-1.6a8.22,8.22,0,0,1,1.8.2l-.28,1.24a5.83,5.83,0,0,0-1.56-.23c-.55,0-.72.09-.72.39s.13.42.54.57l.94.37a1.56,1.56,0,0,1,1.17,1.57c0,1.28-.85,1.78-2.24,1.78A5.35,5.35,0,0,1,119.9,60.32Z"/><path class="cls-1" d="M126.93,54.87h1.48V60.6h-1.48Z"/><path class="cls-1" d="M129.7,54.87h1.19l2,3.2v-3.2h1.47V60.6H133.2l-2-3.1v3.1H129.7Z"/><path class="cls-1" d="M137.24,57.75c0-2.06.74-3,2.84-3a7.76,7.76,0,0,1,1.78.19l-.36,1.3a5.14,5.14,0,0,0-1.42-.19c-.83,0-1.29.17-1.29,1.66s.33,1.75.94,1.75.82-.34.82-1v-.66H142V60.6h-1.17l0-.47c0-.07,0-.1-.1-.1s-.14.07-.34.27a1.3,1.3,0,0,1-1.07.38C138.15,60.68,137.24,60.05,137.24,57.75Z"/><path class="cls-1" d="M144.59,59.35h2.49V60.6h-4V54.87h4l-.28,1.25h-2.21v1h1.62v1.2h-1.62Z"/><path class="cls-1" d="M148,54.87h1.19l2,3.2v-3.2h1.48V60.6h-1.16l-2-3.1v3.1H148Z"/><path class="cls-1" d="M155.45,59.35h2.48V60.6h-4V54.87h4l-.27,1.25h-2.21v1h1.62v1.2h-1.62Z"/><path class="cls-1" d="M159.57,60.57l-1.09-5.7H160l.78,4.33c0,.17.12.23.23.23s.21-.06.23-.23l.79-4.33h1.51l-1.09,5.7c-.47,0-.88.07-1.44.07S160.06,60.61,159.57,60.57Z"/><path class="cls-1" d="M167.18,59.35H165.4l-.25,1.25h-1.46l1.19-5.73c.47,0,.94,0,1.41,0s1,0,1.43,0l1.18,5.73h-1.46ZM167,58.14l-.4-2a.24.24,0,0,0-.26-.22.24.24,0,0,0-.26.22l-.39,2Z"/></g></svg>