<?xml version="1.0" standalone="no"?>
<!DOCTYPE svg PUBLIC "-//W3C//DTD SVG 20010904//EN"
 "http://www.w3.org/TR/2001/REC-SVG-20010904/DTD/svg10.dtd">
<svg version="1.0" xmlns="http://www.w3.org/2000/svg"
 width="260.000000pt" height="260.000000pt" viewBox="0 0 260.000000 260.000000"
 preserveAspectRatio="xMidYMid meet">
<metadata>
Created by potrace 1.14, written by Peter Selinger 2001-2017
</metadata>
<g transform="translate(0.000000,260.000000) scale(0.100000,-0.100000)"
fill="#000000" stroke="none">
<path d="M1766 2548 c-9 -29 -38 -136 -66 -238 -28 -102 -53 -192 -56 -201 -4
-14 -16 -10 -77 22 -75 39 -197 84 -257 94 -19 3 -42 8 -50 10 -43 12 -86 16
-192 16 -65 0 -122 -2 -126 -5 -5 -3 -31 -8 -58 -11 -27 -4 -89 -20 -139 -36
-367 -122 -643 -444 -706 -826 -15 -94 -13 -273 4 -363 74 -376 339 -681 694
-800 306 -102 628 -64 898 105 l87 55 160 -160 c189 -189 188 -188 274 -107
55 52 82 90 78 115 -1 6 -2 16 -3 21 0 5 -73 80 -160 168 l-159 158 28 40
c111 160 178 365 184 563 3 108 15 116 158 120 128 3 170 19 213 84 35 52 68
140 56 147 -5 3 -77 6 -161 5 -83 -1 -147 2 -143 5 4 4 44 22 88 41 197 84
265 160 265 296 0 54 -16 120 -30 129 -5 3 -33 -7 -62 -23 -29 -17 -84 -47
-123 -67 -38 -21 -74 -41 -80 -45 -5 -4 -55 -31 -110 -60 l-100 -53 93 97
c109 115 166 184 194 240 37 70 22 174 -36 262 -32 50 -52 74 -59 74 -3 0 -84
-98 -180 -217 -96 -120 -184 -229 -195 -243 -23 -28 -23 -24 58 220 48 146 40
221 -32 313 -30 38 -125 107 -147 107 -6 0 -17 -24 -25 -52z"/>
</g>
</svg>
