<?xml version="1.0" standalone="no"?>
<!DOCTYPE svg PUBLIC "-//W3C//DTD SVG 20010904//EN"
 "http://www.w3.org/TR/2001/REC-SVG-20010904/DTD/svg10.dtd">
<svg version="1.0" xmlns="http://www.w3.org/2000/svg"
 width="260.000000pt" height="260.000000pt" viewBox="0 0 260.000000 260.000000"
 preserveAspectRatio="xMidYMid meet">
<metadata>
Created by potrace 1.14, written by Peter Selinger 2001-2017
</metadata>
<g transform="translate(0.000000,260.000000) scale(0.100000,-0.100000)"
fill="#000000" stroke="none">
<path d="M1886 2483 c-84 -287 -169 -619 -170 -659 0 -64 15 -88 103 -158 39
-31 73 -67 78 -83 22 -64 -22 -112 -89 -99 -36 7 -82 50 -190 178 -79 93 -159
119 -245 77 -37 -18 -92 -74 -82 -83 2 -2 28 -16 57 -31 64 -34 116 -94 176
-202 58 -102 111 -161 177 -198 48 -26 64 -30 134 -30 117 1 169 32 265 156
70 90 88 99 210 99 73 0 92 3 114 21 23 18 56 67 56 84 0 3 -72 5 -160 5 -136
0 -160 2 -160 15 0 28 41 57 159 112 137 65 174 91 201 143 21 41 28 130 10
130 -6 0 -113 -56 -239 -125 -126 -69 -232 -125 -235 -125 -14 0 -4 48 17 82
12 20 65 83 118 140 151 163 169 190 169 253 0 49 -33 145 -49 145 -4 0 -94
-110 -201 -244 -124 -156 -197 -240 -202 -233 -19 29 -5 107 48 270 44 134 55
181 51 215 -5 49 -43 110 -86 141 -27 20 -30 20 -35 4z"/>
<path d="M1125 2273 c-428 -53 -757 -363 -830 -780 -8 -47 -15 -107 -15 -133
l0 -47 47 23 c25 13 59 24 74 24 25 0 27 3 33 58 61 515 576 836 1062 661 46
-17 110 -48 143 -69 l59 -38 17 61 c9 34 18 69 21 78 3 12 -16 27 -73 57 -167
86 -371 126 -538 105z"/>
<path d="M2131 1314 c-14 -20 -48 -57 -76 -82 -42 -38 -54 -57 -64 -97 -44
-180 -181 -370 -335 -465 l-56 -35 5 -55 c3 -30 8 -65 11 -78 l4 -22 48 24
c26 14 67 39 92 55 l45 31 145 -145 c110 -110 151 -145 170 -145 37 0 143 108
143 145 0 22 -30 57 -142 169 -77 78 -141 145 -141 149 0 5 13 27 29 50 76
111 132 266 150 412 17 142 14 152 -28 89z"/>
<path d="M1177 1315 c-86 -22 -147 -103 -147 -195 0 -118 83 -203 200 -204
138 -1 238 129 200 257 -33 113 -138 172 -253 142z"/>
<path d="M339 1297 c-58 -31 -101 -99 -107 -170 -13 -165 184 -277 320 -181
62 43 90 104 86 181 -3 49 -10 71 -33 105 -61 85 -175 113 -266 65z"/>
<path d="M272 847 c-50 -19 -103 -66 -122 -111 -13 -29 -23 -100 -34 -251 -9
-116 -19 -231 -22 -257 l-6 -48 245 0 245 0 7 68 c14 148 45 213 115 242 36
15 37 21 9 46 -50 44 -64 141 -29 209 24 47 17 58 -55 91 -45 21 -64 24 -185
23 -77 0 -149 -6 -168 -12z"/>
<path d="M1070 849 c-13 -5 -39 -21 -58 -35 l-33 -26 20 -31 c42 -71 34 -160
-20 -218 l-27 -29 36 -19 c71 -36 96 -82 111 -206 6 -50 11 -93 11 -97 0 -5
113 -8 250 -8 l250 0 -4 22 c-3 13 -17 133 -31 268 -30 276 -40 306 -117 358
-40 26 -46 27 -202 29 -92 1 -172 -2 -186 -8z"/>
<path d="M773 780 c-111 -67 -84 -232 42 -256 51 -9 84 3 127 45 33 34 38 45
38 85 0 26 -7 60 -15 76 -33 64 -128 89 -192 50z"/>
<path d="M745 463 c-33 -8 -81 -50 -93 -80 -8 -22 -42 -280 -42 -323 0 -6 87
-10 235 -10 181 0 235 3 235 13 0 6 -9 80 -19 163 -20 167 -31 193 -92 225
-30 15 -57 19 -121 18 -46 -1 -92 -4 -103 -6z"/>
</g>
</svg>
